<?xml version="1.0" standalone="no"?>
<!DOCTYPE svg PUBLIC "-//W3C//DTD SVG 20010904//EN"
 "http://www.w3.org/TR/2001/REC-SVG-20010904/DTD/svg10.dtd">
<svg version="1.0" xmlns="http://www.w3.org/2000/svg"
 width="576.000000pt" height="576.000000pt" viewBox="0 0 576.000000 576.000000"
 preserveAspectRatio="xMidYMid meet">
<metadata>
Created by potrace 1.14, written by Peter Selinger 2001-2017
</metadata>
<g transform="translate(0.000000,576.000000) scale(0.100000,-0.100000)"
fill="#000000" stroke="none">
<path d="M2475 5559 c-78 -7 -250 -53 -345 -91 -348 -139 -704 -418 -891 -696
-23 -34 -46 -62 -50 -62 -5 0 -9 -7 -9 -17 0 -9 -20 -51 -45 -95 -82 -142
-178 -435 -200 -613 -4 -27 -9 -61 -11 -75 -6 -29 -18 -315 -19 -440 l0 -85
61 -85 c73 -101 85 -130 55 -130 -29 0 -84 -52 -104 -97 -27 -62 -46 -208 -42
-338 1 -66 5 -129 8 -141 3 -11 8 -85 12 -164 6 -153 26 -249 66 -320 19 -33
31 -43 65 -51 l42 -11 5 -56 c3 -32 9 -91 15 -132 6 -41 14 -97 17 -125 4 -27
18 -81 32 -120 13 -38 30 -86 36 -105 6 -19 15 -37 19 -40 4 -3 11 -14 15 -25
18 -45 95 -174 118 -199 14 -15 25 -30 25 -34 0 -4 16 -24 35 -46 19 -21 35
-41 35 -45 0 -3 26 -33 58 -67 31 -33 91 -98 132 -144 41 -46 83 -92 93 -102
9 -10 17 -22 17 -28 0 -5 5 -10 11 -10 6 0 52 -37 102 -82 50 -46 104 -95 120
-110 16 -14 46 -34 66 -45 20 -10 40 -24 44 -31 4 -6 19 -12 31 -12 13 0 26
-6 29 -14 3 -7 16 -16 29 -19 198 -51 266 -67 338 -78 36 -6 103 -17 150 -24
98 -16 359 -14 403 4 16 6 46 11 68 11 26 0 42 5 45 15 4 8 18 15 33 15 14 0
35 7 45 15 11 8 28 15 37 15 10 0 38 14 62 30 25 17 50 30 56 30 5 0 33 13 61
30 28 16 55 30 60 30 5 0 13 6 17 13 4 7 23 19 41 27 19 7 61 30 93 52 33 21
62 38 65 38 4 0 35 20 71 45 35 25 71 45 79 45 8 0 17 7 20 15 4 8 12 15 20
15 8 0 14 4 14 9 0 5 17 20 38 32 77 47 211 184 278 284 14 22 33 47 41 55 18
19 45 60 81 125 33 60 80 164 86 193 4 17 12 32 17 32 5 0 9 9 9 19 0 11 7 26
15 35 14 13 20 13 57 0 23 -8 50 -11 61 -8 31 10 116 93 140 138 51 90 66 122
66 134 1 8 8 30 17 50 9 21 22 52 30 70 8 18 14 38 14 44 0 16 59 207 75 245
9 21 15 80 16 183 l2 151 -33 34 c-18 18 -46 39 -61 46 -16 6 -29 16 -29 21 0
5 22 33 49 61 92 99 143 188 181 317 13 41 33 99 47 127 46 102 64 231 64 468
0 244 -17 365 -77 543 -25 75 -49 141 -54 147 -4 5 -26 44 -47 85 -66 126
-102 186 -123 205 -11 10 -20 23 -20 28 0 33 -275 312 -381 386 -123 87 -160
112 -176 118 -10 4 -31 17 -48 29 -28 21 -119 66 -226 112 -26 11 -89 32 -140
46 -52 15 -102 31 -112 37 -10 5 -77 10 -150 11 l-132 0 -77 -41 c-43 -22 -84
-41 -91 -41 -8 0 -42 25 -77 55 -34 31 -78 67 -98 80 -45 28 -177 70 -269 86
-76 12 -326 17 -418 8z"/>
</g>
</svg>
